<svg width="1252" height="831" viewBox="0 0 1252 831" fill="none" xmlns="http://www.w3.org/2000/svg">
<path d="M245 68.9999L316.014 192H173.986L245 68.9999Z" fill="white"/>
<path d="M174.852 191.5L245 69.9999L315.148 191.5H174.852Z" stroke="#C9A7A7" stroke-opacity="0.24"/>
<path d="M448.5 504L355.402 342.75H541.598L448.5 504Z" fill="white"/>
<path d="M540.732 343.25L448.5 503L356.268 343.25H540.732Z" stroke="#C9A7A7" stroke-opacity="0.24"/>
<path d="M632 68.9999L703.014 192H560.986L632 68.9999Z" fill="white"/>
<path d="M561.852 191.5L632 69.9999L702.148 191.5H561.852Z" stroke="#C9A7A7" stroke-opacity="0.24"/>
<path d="M537 314L465.986 191H608.014L537 314Z" fill="white"/>
<path d="M607.148 191.5L537 313L466.852 191.5H607.148Z" stroke="#C9A7A7" stroke-opacity="0.24"/>
<path d="M924 314L852.985 191H995.014L924 314Z" fill="white"/>
<path d="M994.148 191.5L924 313L853.851 191.5H994.148Z" stroke="#C9A7A7" stroke-opacity="0.24"/>
<g filter="url(#filter0_d)">
<path d="M365.917 278.378L340.864 321.81L315.777 278.398L365.917 278.378Z" fill="white"/>
<path d="M316.644 278.897L365.051 278.879L340.864 320.81L316.644 278.897Z" stroke="#D9C1C1" stroke-opacity="0.26"/>
<path d="M416.197 191.224L391.144 234.656L366.057 191.243L416.197 191.224Z" fill="white"/>
<path d="M366.923 191.743L415.331 191.724L391.143 233.656L366.923 191.743Z" stroke="#D9C1C1" stroke-opacity="0.26"/>
<path d="M366.363 191.409L341.31 234.841L316.223 191.428L366.363 191.409Z" fill="white"/>
<path d="M317.09 191.928L365.497 191.909L341.31 233.841L317.09 191.928Z" stroke="#D9C1C1" stroke-opacity="0.26"/>
<path d="M315.612 191.064L290.559 234.496L265.473 191.084L315.612 191.064Z" fill="white"/>
<path d="M266.339 191.583L314.747 191.565L290.559 233.496L266.339 191.583Z" stroke="#D9C1C1" stroke-opacity="0.26"/>
<path d="M390.965 234.955L365.912 278.387L340.825 234.974L390.965 234.955Z" fill="white"/>
<path d="M341.692 235.474L390.099 235.455L365.912 277.387L341.692 235.474Z" stroke="#D9C1C1" stroke-opacity="0.26"/>
<path d="M340.828 234.97L315.775 278.402L290.688 234.989L340.828 234.97Z" fill="white"/>
<path d="M291.554 235.489L339.962 235.47L315.775 277.402L291.554 235.489Z" stroke="#D9C1C1" stroke-opacity="0.26"/>
</g>
<g filter="url(#filter1_d)">
<path d="M752.917 278.378L727.864 321.81L702.777 278.398L752.917 278.378Z" fill="white"/>
<path d="M703.643 278.897L752.051 278.879L727.863 320.81L703.643 278.897Z" stroke="#D9C1C1" stroke-opacity="0.26"/>
<path d="M803.196 191.224L778.143 234.656L753.057 191.243L803.196 191.224Z" fill="white"/>
<path d="M753.923 191.743L802.331 191.724L778.143 233.656L753.923 191.743Z" stroke="#D9C1C1" stroke-opacity="0.26"/>
<path d="M753.363 191.409L728.31 234.841L703.223 191.428L753.363 191.409Z" fill="white"/>
<path d="M704.089 191.928L752.497 191.909L728.309 233.841L704.089 191.928Z" stroke="#D9C1C1" stroke-opacity="0.26"/>
<path d="M702.612 191.064L677.559 234.496L652.472 191.084L702.612 191.064Z" fill="white"/>
<path d="M653.338 191.583L701.746 191.565L677.559 233.496L653.338 191.583Z" stroke="#D9C1C1" stroke-opacity="0.26"/>
<path d="M777.965 234.955L752.912 278.387L727.825 234.974L777.965 234.955Z" fill="white"/>
<path d="M728.691 235.474L777.099 235.455L752.912 277.387L728.691 235.474Z" stroke="#D9C1C1" stroke-opacity="0.26"/>
<path d="M727.828 234.97L702.775 278.402L677.688 234.989L727.828 234.97Z" fill="white"/>
<path d="M678.554 235.489L726.962 235.47L702.774 277.402L678.554 235.489Z" stroke="#D9C1C1" stroke-opacity="0.26"/>
</g>
<g filter="url(#filter2_d)">
<path d="M784.812 508.999L737.327 591.319L689.778 509.036L784.812 508.999Z" fill="white"/>
<path d="M690.644 509.536L783.946 509.499L737.326 590.319L690.644 509.536Z" stroke="#D9C1C1" stroke-opacity="0.14"/>
<path d="M880.11 343.808L832.625 426.129L785.076 343.845L880.11 343.808Z" fill="white"/>
<path d="M785.943 344.345L879.245 344.309L832.625 425.129L785.943 344.345Z" stroke="#D9C1C1" stroke-opacity="0.14"/>
<path d="M785.657 344.159L738.172 426.479L690.623 344.196L785.657 344.159Z" fill="white"/>
<path d="M691.489 344.695L784.791 344.659L738.171 425.479L691.489 344.695Z" stroke="#D9C1C1" stroke-opacity="0.14"/>
<path d="M689.465 343.506L641.98 425.827L594.431 343.543L689.465 343.506Z" fill="white"/>
<path d="M595.297 344.043L688.599 344.007L641.98 424.827L595.297 344.043Z" stroke="#D9C1C1" stroke-opacity="0.14"/>
<path d="M832.287 426.695L784.802 509.015L737.253 426.732L832.287 426.695Z" fill="white"/>
<path d="M738.12 427.232L831.421 427.195L784.802 508.015L738.12 427.232Z" stroke="#D9C1C1" stroke-opacity="0.14"/>
<path d="M737.258 426.724L689.773 509.044L642.224 426.761L737.258 426.724Z" fill="white"/>
<path d="M643.09 427.26L736.392 427.224L689.773 508.044L643.09 427.26Z" stroke="#D9C1C1" stroke-opacity="0.14"/>
</g>
<path d="M415.763 105.032L440.816 61.5999L465.903 105.013L415.763 105.032Z" fill="white"/>
<path d="M465.037 104.513L416.629 104.532L440.817 62.5999L465.037 104.513Z" stroke="#D9C1C1" stroke-opacity="0.26"/>
<path d="M365.484 192.186L390.537 148.754L415.624 192.167L365.484 192.186Z" fill="white"/>
<path d="M414.758 191.667L366.35 191.686L390.537 149.754L414.758 191.667Z" stroke="#D9C1C1" stroke-opacity="0.26"/>
<path d="M415.317 192.002L440.37 148.569L465.457 191.982L415.317 192.002Z" fill="white"/>
<path d="M464.591 191.482L416.183 191.501L440.371 149.569L464.591 191.482Z" stroke="#D9C1C1" stroke-opacity="0.26"/>
<path d="M466.068 192.346L491.121 148.914L516.208 192.326L466.068 192.346Z" fill="white"/>
<path d="M515.342 191.827L466.934 191.846L491.122 149.914L515.342 191.827Z" stroke="#D9C1C1" stroke-opacity="0.26"/>
<path d="M390.715 148.456L415.768 105.023L440.855 148.436L390.715 148.456Z" fill="white"/>
<path d="M439.989 147.936L391.581 147.955L415.769 106.023L439.989 147.936Z" stroke="#D9C1C1" stroke-opacity="0.26"/>
<path d="M440.853 148.44L465.906 105.008L490.992 148.421L440.853 148.44Z" fill="white"/>
<path d="M490.126 147.921L441.718 147.94L465.906 106.008L490.126 147.921Z" stroke="#D9C1C1" stroke-opacity="0.26"/>
<path d="M802.763 105.032L827.816 61.5999L852.903 105.013L802.763 105.032Z" fill="white"/>
<path d="M852.037 104.513L803.629 104.532L827.816 62.5999L852.037 104.513Z" stroke="#D9C1C1" stroke-opacity="0.26"/>
<path d="M752.484 192.186L777.537 148.754L802.623 192.167L752.484 192.186Z" fill="white"/>
<path d="M801.757 191.667L753.349 191.686L777.537 149.754L801.757 191.667Z" stroke="#D9C1C1" stroke-opacity="0.26"/>
<path d="M802.317 192.002L827.37 148.569L852.457 191.982L802.317 192.002Z" fill="white"/>
<path d="M851.591 191.482L803.183 191.501L827.37 149.569L851.591 191.482Z" stroke="#D9C1C1" stroke-opacity="0.26"/>
<path d="M853.068 192.346L878.121 148.914L903.208 192.326L853.068 192.346Z" fill="white"/>
<path d="M902.341 191.827L853.934 191.846L878.121 149.914L902.341 191.827Z" stroke="#D9C1C1" stroke-opacity="0.26"/>
<path d="M777.715 148.456L802.768 105.023L827.855 148.436L777.715 148.456Z" fill="white"/>
<path d="M826.988 147.936L778.581 147.955L802.768 106.023L826.988 147.936Z" stroke="#D9C1C1" stroke-opacity="0.26"/>
<path d="M827.852 148.44L852.905 105.008L877.992 148.421L827.852 148.44Z" fill="white"/>
<path d="M877.126 147.921L828.718 147.94L852.906 106.008L877.126 147.921Z" stroke="#D9C1C1" stroke-opacity="0.26"/>
<defs>
<filter id="filter0_d" x="256.473" y="164.358" width="181.268" height="170.452" filterUnits="userSpaceOnUse" color-interpolation-filters="sRGB">
<feFlood flood-opacity="0" result="BackgroundImageFix"/>
<feColorMatrix in="SourceAlpha" type="matrix" values="0 0 0 0 0 0 0 0 0 0 0 0 0 0 0 0 0 0 127 0"/>
<feOffset dy="4"/>
<feGaussianBlur stdDeviation="4.5"/>
<feColorMatrix type="matrix" values="0 0 0 0 0.945833 0 0 0 0 0.945833 0 0 0 0 0.945833 0 0 0 0.25 0"/>
<feBlend mode="normal" in2="BackgroundImageFix" result="effect1_dropShadow"/>
<feBlend mode="normal" in="SourceGraphic" in2="effect1_dropShadow" result="shape"/>
</filter>
<filter id="filter1_d" x="643.472" y="164.358" width="181.268" height="170.452" filterUnits="userSpaceOnUse" color-interpolation-filters="sRGB">
<feFlood flood-opacity="0" result="BackgroundImageFix"/>
<feColorMatrix in="SourceAlpha" type="matrix" values="0 0 0 0 0 0 0 0 0 0 0 0 0 0 0 0 0 0 127 0"/>
<feOffset dy="4"/>
<feGaussianBlur stdDeviation="4.5"/>
<feColorMatrix type="matrix" values="0 0 0 0 0.945833 0 0 0 0 0.945833 0 0 0 0 0.945833 0 0 0 0.25 0"/>
<feBlend mode="normal" in2="BackgroundImageFix" result="effect1_dropShadow"/>
<feBlend mode="normal" in="SourceGraphic" in2="effect1_dropShadow" result="shape"/>
</filter>
<filter id="filter2_d" x="585.431" y="297.365" width="327.454" height="306.955" filterUnits="userSpaceOnUse" color-interpolation-filters="sRGB">
<feFlood flood-opacity="0" result="BackgroundImageFix"/>
<feColorMatrix in="SourceAlpha" type="matrix" values="0 0 0 0 0 0 0 0 0 0 0 0 0 0 0 0 0 0 127 0"/>
<feOffset dy="4"/>
<feGaussianBlur stdDeviation="4.5"/>
<feColorMatrix type="matrix" values="0 0 0 0 0.945833 0 0 0 0 0.945833 0 0 0 0 0.945833 0 0 0 0.25 0"/>
<feBlend mode="normal" in2="BackgroundImageFix" result="effect1_dropShadow"/>
<feBlend mode="normal" in="SourceGraphic" in2="effect1_dropShadow" result="shape"/>
</filter>
</defs>
</svg>
